<?xml version="1.0" encoding="UTF-8" standalone="no"?>
<svg
   xmlns:dc="http://purl.org/dc/elements/1.1/"
   xmlns:cc="http://creativecommons.org/ns#"
   xmlns:rdf="http://www.w3.org/1999/02/22-rdf-syntax-ns#"
   xmlns:svg="http://www.w3.org/2000/svg"
   xmlns="http://www.w3.org/2000/svg"
   xmlns:sodipodi="http://sodipodi.sourceforge.net/DTD/sodipodi-0.dtd"
   xmlns:inkscape="http://www.inkscape.org/namespaces/inkscape"
   id="Layer_1"
   version="1.1"
   viewBox="0 0 415 266"
   xml:space="preserve"
   inkscape:version="0.91 r13725"
   sodipodi:docname="if_Google_Plus_Color_1435163.svg"
   width="415"
   height="266"><metadata
     id="metadata12"><rdf:RDF><cc:Work
         rdf:about=""><dc:format>image/svg+xml</dc:format><dc:type
           rdf:resource="http://purl.org/dc/dcmitype/StillImage" /><dc:title></dc:title></cc:Work></rdf:RDF></metadata><defs
     id="defs10" /><sodipodi:namedview
     pagecolor="#ffffff"
     bordercolor="#666666"
     borderopacity="1"
     objecttolerance="10"
     gridtolerance="10"
     guidetolerance="10"
     inkscape:pageopacity="0"
     inkscape:pageshadow="2"
     inkscape:window-width="640"
     inkscape:window-height="480"
     id="namedview8"
     showgrid="false"
     inkscape:zoom="0.4609375"
     inkscape:cx="256"
     inkscape:cy="256"
     inkscape:window-x="0"
     inkscape:window-y="0"
     inkscape:window-maximized="0"
     inkscape:current-layer="Layer_1" /><style
     type="text/css"
     id="style3">
	.st0{fill:#DA4B42;}
</style><g
     id="XMLID_246_"
     transform="translate(-49.898306,-198.27119)"><g
       id="XMLID_30_"><path
         class="st0"
         d="m 181.6,306.9 0,51.3 c 0,0 49.7,-0.1 70,-0.1 -11,33.2 -28,51.3 -70,51.3 -42.5,0 -75.6,-34.4 -75.6,-76.9 0,-42.5 33.2,-76.9 75.6,-76.9 22.5,0 37,7.9 50.3,18.9 10.7,-10.7 9.8,-12.2 36.9,-37.8 -23,-20.9 -53.6,-33.7 -87.1,-33.7 -71.5,0 -129.5,58 -129.5,129.5 0,71.5 58,129.5 129.5,129.5 106.9,0 133,-93.1 124.3,-155.1 -25.3,0 -124.4,0 -124.4,0 z m 233.4,2.5 0,-44.9 -32,0 0,44.9 -46.1,0 0,32 46.1,0 0,46.1 32,0 0,-46.1 44.9,0 0,-32 -44.9,0 z"
         id="XMLID_31_"
         inkscape:connector-curvature="0"
         style="fill:#da4b42" /></g></g></svg>