<?xml version="1.0" encoding="UTF-8" standalone="no"?>
<svg
   xmlns:dc="http://purl.org/dc/elements/1.1/"
   xmlns:cc="http://creativecommons.org/ns#"
   xmlns:rdf="http://www.w3.org/1999/02/22-rdf-syntax-ns#"
   xmlns:svg="http://www.w3.org/2000/svg"
   xmlns="http://www.w3.org/2000/svg"
   xmlns:sodipodi="http://sodipodi.sourceforge.net/DTD/sodipodi-0.dtd"
   xmlns:inkscape="http://www.inkscape.org/namespaces/inkscape"
   enable-background="new 0 0 512 512"
   id="Layer_1"
   version="1.1"
   viewBox="0 0 258 512"
   xml:space="preserve"
   inkscape:version="0.91 r13725"
   sodipodi:docname="fb-icon.svg"
   width="258"
   height="512"><metadata
     id="metadata11"><rdf:RDF><cc:Work
         rdf:about=""><dc:format>image/svg+xml</dc:format><dc:type
           rdf:resource="http://purl.org/dc/dcmitype/StillImage" /><dc:title></dc:title></cc:Work></rdf:RDF></metadata><defs
     id="defs9" /><sodipodi:namedview
     pagecolor="#ffffff"
     bordercolor="#666666"
     borderopacity="1"
     objecttolerance="10"
     gridtolerance="10"
     guidetolerance="10"
     inkscape:pageopacity="0"
     inkscape:pageshadow="2"
     inkscape:window-width="640"
     inkscape:window-height="480"
     id="namedview7"
     showgrid="false"
     inkscape:zoom="0.4609375"
     inkscape:cx="256"
     inkscape:cy="256"
     inkscape:window-x="195"
     inkscape:window-y="515"
     inkscape:window-maximized="0"
     inkscape:current-layer="Layer_1" /><g
     id="g3"
     transform="translate(-138.84746,-4.9152504e-8)"><path
       d="m 308.1,382.5 c 0,40.3 -0.1,80.6 0.1,121 0,4.4 -1,5.6 -5.5,5.5 -34.3,-0.2 -68.6,-0.2 -103,0 -4.7,0 -5.8,-1.3 -5.8,-5.9 0.1,-80.1 0.1,-160.3 0.2,-240.4 0,-4.4 -0.8,-6 -5.6,-5.9 -15.2,0.3 -30.3,0 -45.5,0.2 -3.5,0 -4.5,-1 -4.5,-4.5 0.1,-25.3 0.2,-50.7 0,-76 0,-3.9 1.4,-4.7 4.9,-4.6 15.2,0.2 30.3,-0.1 45.5,0.2 4.3,0.1 5.2,-1.3 5.2,-5.4 -0.2,-22.3 -0.2,-44.7 0,-67 0.2,-19.3 4.1,-37.6 15.5,-53.8 12.1,-17.2 28.9,-27.6 48.6,-33.9 14.7,-4.7 29.9,-6.7 45.2,-6.8 29,-0.4 58,-0.1 87,-0.3 4.1,0 5,1.3 5,5.2 -0.1,26 -0.2,52 0,78 0,4.3 -1.3,5.2 -5.4,5.2 -18.3,-0.2 -36.7,-0.1 -55,-0.1 -16.1,0 -26.6,10.6 -26.6,26.5 0,15.8 0.1,31.7 -0.1,47.5 0,3.8 1.1,4.8 4.8,4.8 25.7,-0.1 51.3,0 77,-0.2 3.9,0 5.3,0.9 4.8,5 -2.9,26 -5.2,52 -9.8,77.8 -0.6,3.2 -2.6,2.4 -4.4,2.4 -15.2,0 -30.3,0 -45.5,0 -7.3,0 -14.7,0.2 -22,-0.1 -4.1,-0.2 -5.3,1 -5.2,5.2 0.1,40.1 0.1,80.2 0.1,120.4 z"
       id="path5"
       inkscape:connector-curvature="0"
       style="fill:#4862a3" /></g></svg>