<?xml version="1.0" encoding="UTF-8" standalone="no"?>
<!-- Generator: Adobe Illustrator 19.0.0, SVG Export Plug-In . SVG Version: 6.00 Build 0)  -->

<svg
   xmlns:dc="http://purl.org/dc/elements/1.1/"
   xmlns:cc="http://creativecommons.org/ns#"
   xmlns:rdf="http://www.w3.org/1999/02/22-rdf-syntax-ns#"
   xmlns:svg="http://www.w3.org/2000/svg"
   xmlns="http://www.w3.org/2000/svg"
   xmlns:xlink="http://www.w3.org/1999/xlink"
   xmlns:sodipodi="http://sodipodi.sourceforge.net/DTD/sodipodi-0.dtd"
   xmlns:inkscape="http://www.inkscape.org/namespaces/inkscape"
   version="1.1"
   id="Layer_1"
   x="0px"
   y="0px"
   viewBox="0 0 70 70"
   xml:space="preserve"
   inkscape:version="0.91 r13725"
   sodipodi:docname="map-icon.svg"
   width="70"
   height="70"><metadata
     id="metadata19"><rdf:RDF><cc:Work
         rdf:about=""><dc:format>image/svg+xml</dc:format><dc:type
           rdf:resource="http://purl.org/dc/dcmitype/StillImage" /><dc:title></dc:title></cc:Work></rdf:RDF></metadata><defs
     id="defs17" /><sodipodi:namedview
     pagecolor="#ffffff"
     bordercolor="#666666"
     borderopacity="1"
     objecttolerance="10"
     gridtolerance="10"
     guidetolerance="10"
     inkscape:pageopacity="0"
     inkscape:pageshadow="2"
     inkscape:window-width="1855"
     inkscape:window-height="1056"
     id="namedview15"
     showgrid="false"
     fit-margin-top="0"
     fit-margin-left="0"
     fit-margin-right="0"
     fit-margin-bottom="0"
     showborder="false"
     inkscape:zoom="3.6914062"
     inkscape:cx="-26.89249"
     inkscape:cy="13.946444"
     inkscape:window-x="65"
     inkscape:window-y="24"
     inkscape:window-maximized="1"
     inkscape:current-layer="g4154" /><style
     type="text/css"
     id="style3">
	.st0{clip-path:url(#SVGID_2_);fill:#C41230;}
</style><g
     id="g4172"
     transform="matrix(1.5,0,0,1.5,5.000001,5.000001)"><g
       style="fill:#ff94ff;fill-opacity:1;stroke:none"
       id="g4148"><g
         style="fill:#ff94ff;fill-opacity:1;stroke:none"
         id="g4150"><g
           style="fill:#ff94ff;fill-opacity:1;stroke:none"
           id="g4152"><g
             style="fill:#ff94ff;fill-opacity:1;stroke:none"
             id="g4154"><circle
               id="circle4187"
               r="22.666666"
               cy="20"
               cx="20"
               style="fill:#ffffff;fill-opacity:1" /><g
               transform="matrix(0.97101708,0,0,0.97101708,8.3477944,9.3188115)"
               id="g5"><defs
                 id="defs7"><rect
                   y="0"
                   x="0"
                   height="22"
                   width="24"
                   id="SVGID_1_" /></defs><clipPath
                 id="SVGID_2_"><use
                   height="100%"
                   width="100%"
                   y="0"
                   x="0"
                   id="use11"
                   style="overflow:visible"
                   xlink:href="#SVGID_1_" /></clipPath></g><g
               id="g4219"><path
                 class="st0"
                 d="m 12,2 c 2.1,0 4,1.7 4,3.7 0,2.1 -1.7,4.9 -4,8.6 C 9.7,10.7 8,7.8 8,5.7 8,3.7 9.9,2 12,2 M 12,0 C 8.9,0 6,2.6 6,5.7 6,8.8 8.6,12.6 12,18 15.4,12.6 18,8.9 18,5.7 18,2.6 15.1,0 12,0 m 0,8 c -1.1,0 -2,-0.9 -2,-2 0,-1.1 0.9,-2 2,-2 1.1,0 2,0.9 2,2 0,1.1 -0.9,2 -2,2 m 8,6 -3.1,0 c -0.4,0.6 -0.8,1.3 -1.2,2 l 3.1,0 0.5,1 -4.3,0 c -0.1,0.2 -0.2,0.4 -0.3,0.5 -0.1,0.1 -0.2,0.3 -0.3,0.5 l 0.6,0 0.9,2 -7.6,0 0.9,-2 0.5,0 C 9.6,17.9 9.5,17.7 9.4,17.5 9.2,17.4 9.1,17.2 9,17 L 7,17 6,16 8.4,16 C 8,15.3 7.6,14.6 7.2,14 L 4,14 0,22 24,22 20,14 Z M 7.2,20 3.2,20 5,16.5 6.5,18 8,18 7.2,20 Z m 8.8,-2 3.8,0 1,2 -3.9,0 -0.9,-2 z"
                 id="path13"
                 clip-path="url(#SVGID_2_)"
                 inkscape:connector-curvature="0"
                 style="fill:#c41230;fill-opacity:1;stroke:none"
                 transform="matrix(0.97101707,0,0,0.97101707,8.3477947,9.3188114)" /><path
                 id="path4156"
                 d="M 19.999999,-1.000001 C 31.579166,-1.000001 41,8.4208326 41,19.999999 41,31.579166 31.579166,41 19.999999,41 c -11.5791664,0 -21,-9.420834 -21,-21.000001 0,-11.5791664 9.4208336,-21 21,-21 m 0,-2.3333334 c -12.8858331,0 -23.3333334,10.4463336 -23.3333334,23.3333334 0,12.888167 10.4475003,23.333334 23.3333334,23.333334 12.888167,0 23.333334,-10.445167 23.333334,-23.333334 0,-12.8869998 -10.445167,-23.3333334 -23.333334,-23.3333334 l 0,0 z"
                 inkscape:connector-curvature="0"
                 style="fill:#c41230;fill-opacity:1;stroke:none;stroke-opacity:1" /></g></g></g></g></g></g></svg>